<svg width="500" height="500" viewBox="0 0 30 30" fill="none" xmlns="http://www.w3.org/2000/svg">
<g id="Twitter">
<rect x="0.396484" width="29.396" height="29.396" rx="14.698" fill="#00777B"/>
<path id="Vector" d="M12.4045 22.4514C18.923 22.4514 22.4873 17.0499 22.4873 12.3686C22.4873 12.2142 22.4873 12.0599 22.48 11.9129C23.1708 11.4132 23.7734 10.7885 24.2511 10.0757C23.6191 10.3549 22.9356 10.546 22.2154 10.6342C22.9503 10.1933 23.5088 9.50245 23.7734 8.67201C23.0899 9.0762 22.333 9.37016 21.5246 9.53184C20.8779 8.84104 19.9593 8.41479 18.9377 8.41479C16.9829 8.41479 15.3955 10.0022 15.3955 11.957C15.3955 12.2363 15.4249 12.5082 15.4911 12.7654C12.5441 12.6184 9.93523 11.2074 8.18617 9.06151C7.88486 9.58329 7.70848 10.1933 7.70848 10.84C7.70848 12.0672 8.33315 13.1549 9.28852 13.7869C8.70795 13.7722 8.16412 13.6105 7.68644 13.346C7.68644 13.3607 7.68644 13.3754 7.68644 13.3901C7.68644 15.1097 8.90637 16.5354 10.5305 16.8661C10.2365 16.947 9.92053 16.9911 9.59717 16.9911C9.36935 16.9911 9.14889 16.969 8.92842 16.9249C9.3767 18.3359 10.6848 19.3574 12.2355 19.3868C11.0229 20.3349 9.49429 20.9007 7.83342 20.9007C7.5468 20.9007 7.26754 20.886 6.98828 20.8493C8.53892 21.8635 10.4056 22.4514 12.4045 22.4514Z" fill="white"/>
</g>
</svg>
