<svg viewBox="0 0 20 20" fill="none" xmlns="http://www.w3.org/2000/svg">
<g clip-path="url(#clip0_2643_4590)">
<path d="M3.57699 13.378C3.46204 13.4961 3.39771 13.5603 3.33576 13.627C2.65139 14.3653 1.96582 15.1016 1.28501 15.8431C1.04557 16.1037 0.779922 16.2449 0.443988 16.0896C0.116392 15.9368 0.00143614 15.6434 0.00203177 15.2736C0.00262739 10.9803 -0.000946374 6.68689 0.000244882 2.39352C0.00084051 0.996637 0.928233 0.00225365 2.22908 0.0016117C6.22098 0.000327793 10.2123 -0.000314158 14.2042 0.00225365C15.5015 0.0028956 16.4199 1.00113 16.4241 2.40315C16.4253 2.87499 16.4241 3.34746 16.4241 3.85396C16.676 3.85396 16.9113 3.85011 17.1466 3.85461C17.4813 3.86167 17.8197 3.84048 18.149 3.8912C19.2414 4.05939 19.9848 4.98893 19.9967 6.17783C20.0044 6.92378 19.9979 7.67036 19.9979 8.41695C19.9973 11.9637 19.9973 15.5112 19.9925 19.0579C19.9925 19.2229 19.977 19.4001 19.9204 19.5503C19.7352 20.0421 19.158 20.1544 18.7923 19.7712C18.3277 19.2846 17.875 18.7845 17.4176 18.2908C17.0495 17.8934 16.6772 17.4999 16.3151 17.0955C16.2025 16.9697 16.0858 16.9235 15.9244 16.9235C12.5507 16.9279 9.17768 16.9286 5.80404 16.926C4.73013 16.926 3.85991 16.2301 3.65144 15.1472C3.56508 14.6985 3.59784 14.2228 3.57878 13.7593C3.57461 13.6572 3.57818 13.5545 3.57818 13.378H3.57699ZM1.40771 13.5654C1.51314 13.4595 1.5733 13.403 1.62929 13.3426C2.07124 12.8657 2.51975 12.3951 2.95039 11.9072C3.17256 11.655 3.42451 11.5561 3.74377 11.5567C7.2133 11.5632 10.6828 11.5606 14.1524 11.5606C14.7486 11.5606 15.0154 11.2775 15.0154 10.6432C15.0154 7.90724 15.0142 5.17125 15.0136 2.43525C15.0136 1.81512 14.7426 1.52175 14.169 1.52175C10.2004 1.52175 6.2323 1.52175 2.26363 1.52175C1.67277 1.52175 1.41069 1.80678 1.41069 2.44873C1.4095 6.04302 1.40891 9.63795 1.40831 13.2322C1.40831 13.3195 1.40831 13.4068 1.40831 13.5654H1.40771ZM16.4235 5.37796C16.4235 5.50635 16.4235 5.602 16.4235 5.69701C16.4235 7.34233 16.4253 8.98765 16.4193 10.6323C16.4187 10.8551 16.4027 11.0836 16.355 11.2993C16.1185 12.3797 15.2704 13.0737 14.1935 13.0743C11.2219 13.0762 8.25029 13.075 5.2793 13.075H5.00948C4.99459 13.1263 4.98684 13.1411 4.98684 13.1558C4.98446 13.6052 4.98267 14.0546 4.98208 14.5039C4.98208 15.1221 5.25309 15.4129 5.83025 15.4129C9.29323 15.4129 12.7562 15.4162 16.2192 15.4078C16.5736 15.4072 16.8446 15.5221 17.087 15.8007C17.5046 16.2802 17.9447 16.7373 18.3766 17.2027C18.4314 17.2618 18.4921 17.3144 18.5916 17.4107C18.5916 17.2669 18.5916 17.1822 18.5916 17.0974C18.591 13.4858 18.5898 9.87483 18.5886 6.26321C18.5886 6.19901 18.591 6.13417 18.5856 6.07062C18.5582 5.72718 18.2854 5.39593 17.968 5.38309C17.4641 5.36191 16.9584 5.37731 16.4235 5.37731V5.37796Z" fill="#0866FF"/>
</g>
<defs>
<clipPath id="clip0_2643_4590">
<rect width="20" height="20" fill="white"/>
</clipPath>
</defs>
</svg>
