<svg viewBox="0 0 20 20" fill="none" xmlns="http://www.w3.org/2000/svg">
<g clip-path="url(#clip0_2643_4600)">
<path d="M13.4468 3.94024C12.1589 2.6523 11.5149 2.00832 10.6794 1.76871C9.84385 1.52908 8.95643 1.73386 7.18164 2.14343L6.15816 2.37962C4.66503 2.72419 3.91845 2.89648 3.40722 3.40771C2.89599 3.91894 2.7237 4.66551 2.37913 6.15865L2.14294 7.18213C1.73338 8.95692 1.52859 9.84434 1.76822 10.6798C2.00783 11.5153 2.65181 12.1593 3.93975 13.4473L5.46445 14.9719C7.70528 17.2128 8.82568 18.3332 10.2179 18.3332C11.6102 18.3332 12.7306 17.2128 14.9714 14.9719C17.2123 12.7311 18.3327 11.6107 18.3327 10.2184C18.3327 9.09967 17.6093 8.15651 16.1624 6.66651" stroke="#0866FF" stroke-width="1.5" stroke-linecap="round"/>
<path d="M7.17253 9.06575C8.093 9.06575 8.83917 8.31956 8.83917 7.39909C8.83917 6.47861 8.093 5.73242 7.17253 5.73242C6.25205 5.73242 5.50586 6.47861 5.50586 7.39909" stroke="#0866FF" stroke-width="1.5" stroke-linecap="round"/>
<path d="M9.61719 15.4166L10.4505 14.5833M15.433 9.60059L12.4991 12.5346" stroke="#0866FF" stroke-width="1.5" stroke-linecap="round"/>
</g>
<defs>
<clipPath id="clip0_2643_4600">
<rect width="20" height="20" fill="white"/>
</clipPath>
</defs>
</svg>
