<svg width="47" height="47" viewBox="0 0 47 47" fill="none" xmlns="http://www.w3.org/2000/svg">
<g id="Back Button">
<path id="Vector" d="M23.4625 34.0344C23.8582 34.0344 24.2064 33.892 24.5071 33.5913L36.7731 21.0404C37.0579 20.7714 37.2003 20.4232 37.2003 20.0117C37.2003 19.1886 36.5832 18.5556 35.7602 18.5556C35.3485 18.5556 35.0004 18.7297 34.7314 18.9829L23.4625 30.505L12.1936 18.9829C11.9246 18.7297 11.5605 18.5556 11.1649 18.5556C10.3419 18.5556 9.72461 19.1886 9.72461 20.0117C9.72461 20.4232 9.86705 20.7714 10.1361 21.0404L22.4179 33.5913C22.7028 33.892 23.0668 34.0344 23.4625 34.0344Z" fill="#00777B"/>
</g>
</svg>
