<svg width="47" height="47" viewBox="0 0 47 47" fill="none" xmlns="http://www.w3.org/2000/svg">
<g id="Back Button">
<path id="Vector" d="M23.5375 12.9656C23.1418 12.9656 22.7936 13.108 22.4929 13.4087L10.2269 25.9596C9.94213 26.2286 9.79968 26.5768 9.79968 26.9883C9.79968 27.8114 10.4168 28.4444 11.2398 28.4444C11.6515 28.4444 11.9996 28.2703 12.2686 28.0171L23.5375 16.495L34.8064 28.0171C35.0754 28.2703 35.4395 28.4444 35.8351 28.4444C36.6581 28.4444 37.2754 27.8114 37.2754 26.9883C37.2754 26.5768 37.1329 26.2286 36.8639 25.9596L24.5821 13.4087C24.2972 13.108 23.9332 12.9656 23.5375 12.9656Z" fill="#00777B"/>
</g>
</svg>
