<svg width="31" height="30" viewBox="0 0 31 30" fill="none" xmlns="http://www.w3.org/2000/svg">
<g id="Discord">
<rect x="0.980469" width="29.396" height="29.396" rx="14.698" fill="#00777B"/>
<path id="Vector" d="M22.8101 7.95436C21.4986 7.33403 20.0922 6.87699 18.6217 6.61523C18.5949 6.61018 18.5681 6.62281 18.5543 6.64806C18.3735 6.97968 18.1731 7.4123 18.0328 7.75234C16.4512 7.50826 14.8777 7.50826 13.3285 7.75234C13.1882 7.40474 12.9806 6.97968 12.7989 6.64806C12.7851 6.62365 12.7584 6.61102 12.7316 6.61523C11.2619 6.87616 9.8555 7.33319 8.54316 7.95436C8.5318 7.95941 8.52207 7.96783 8.5156 7.97876C5.84795 12.087 5.11716 16.0943 5.47566 20.0519C5.47728 20.0713 5.48783 20.0898 5.50243 20.1016C7.26247 21.434 8.96737 22.2428 10.6406 22.779C10.6674 22.7874 10.6958 22.7773 10.7128 22.7546C11.1086 22.1974 11.4614 21.6099 11.764 20.9921C11.7818 20.9559 11.7648 20.913 11.7283 20.8987C11.1686 20.6798 10.6357 20.413 10.1231 20.11C10.0826 20.0856 10.0794 20.0258 10.1167 19.9972C10.2245 19.9139 10.3324 19.8272 10.4354 19.7396C10.4541 19.7237 10.48 19.7203 10.5019 19.7304C13.8695 21.3153 17.5153 21.3153 20.8432 19.7304C20.8651 19.7194 20.8911 19.7228 20.9105 19.7388C21.0135 19.8263 21.1214 19.9139 21.2301 19.9972C21.2674 20.0258 21.265 20.0856 21.2244 20.11C20.7118 20.4189 20.1789 20.6798 19.6185 20.8978C19.582 20.9121 19.5658 20.9559 19.5836 20.9921C19.8926 21.609 20.2454 22.1965 20.6339 22.7537C20.6502 22.7773 20.6794 22.7874 20.7061 22.779C22.3875 22.2428 24.0924 21.434 25.8524 20.1016C25.8678 20.0898 25.8776 20.0721 25.8792 20.0528C26.3083 15.4773 25.1606 11.5029 22.8368 7.9796C22.8311 7.96783 22.8214 7.95941 22.8101 7.95436ZM12.2669 17.6422C11.253 17.6422 10.4176 16.6827 10.4176 15.5043C10.4176 14.3259 11.2368 13.3664 12.2669 13.3664C13.305 13.3664 14.1323 14.3343 14.1161 15.5043C14.1161 16.6827 13.2969 17.6422 12.2669 17.6422ZM19.1042 17.6422C18.0904 17.6422 17.255 16.6827 17.255 15.5043C17.255 14.3259 18.0742 13.3664 19.1042 13.3664C20.1424 13.3664 20.9697 14.3343 20.9535 15.5043C20.9535 16.6827 20.1424 17.6422 19.1042 17.6422Z" fill="white"/>
</g>
</svg>
