<svg width="31" height="30" viewBox="0 0 31 30" fill="none" xmlns="http://www.w3.org/2000/svg">
<g id="Instagram">
<rect x="0.791016" width="29.396" height="29.396" rx="14.698" fill="#00777B"/>
<g id="Vector">
<path d="M15.4918 7.46877C17.8483 7.46877 18.1249 7.47928 19.0562 7.52129C19.9176 7.55981 20.3833 7.70337 20.6949 7.82591C21.108 7.98698 21.4022 8.17605 21.7103 8.48417C22.0184 8.79229 22.211 9.08641 22.3685 9.49957C22.4876 9.81119 22.6346 10.2769 22.6732 11.1382C22.7152 12.0696 22.7257 12.3462 22.7257 14.7026C22.7257 17.059 22.7152 17.3356 22.6732 18.267C22.6346 19.1283 22.4911 19.594 22.3685 19.9057C22.2075 20.3188 22.0184 20.6129 21.7103 20.921C21.4022 21.2292 21.108 21.4217 20.6949 21.5793C20.3833 21.6984 19.9176 21.8454 19.0562 21.8839C18.1249 21.9259 17.8483 21.9364 15.4918 21.9364C13.1354 21.9364 12.8588 21.9259 11.9274 21.8839C11.0661 21.8454 10.6004 21.7019 10.2888 21.5793C9.87563 21.4182 9.58152 21.2292 9.2734 20.921C8.96528 20.6129 8.7727 20.3188 8.61514 19.9057C8.49609 19.594 8.34903 19.1283 8.31052 18.267C8.2685 17.3356 8.258 17.059 8.258 14.7026C8.258 12.3462 8.2685 12.0696 8.31052 11.1382C8.34903 10.2769 8.49259 9.81119 8.61514 9.49957C8.7762 9.08641 8.96528 8.79229 9.2734 8.48417C9.58152 8.17605 9.87563 7.98348 10.2888 7.82591C10.6004 7.70687 11.0661 7.55981 11.9274 7.52129C12.8588 7.47578 13.1389 7.46877 15.4918 7.46877ZM15.4918 5.87915C13.0969 5.87915 12.7958 5.88965 11.8539 5.93167C10.9155 5.97369 10.2748 6.12425 9.71457 6.34133C9.13334 6.56542 8.64315 6.87004 8.15296 7.36023C7.66276 7.85042 7.36165 8.34412 7.13406 8.92184C6.91697 9.48206 6.76641 10.1228 6.7244 11.0647C6.68238 12.0031 6.67188 12.3042 6.67188 14.6991C6.67188 17.094 6.68238 17.3952 6.7244 18.337C6.76641 19.2754 6.91697 19.9162 7.13406 20.4799C7.35814 21.0611 7.66276 21.5513 8.15296 22.0415C8.64315 22.5317 9.13684 22.8328 9.71457 23.0604C10.2748 23.2775 10.9155 23.428 11.8574 23.47C12.7993 23.5121 13.0969 23.5226 15.4953 23.5226C17.8938 23.5226 18.1914 23.5121 19.1333 23.47C20.0716 23.428 20.7124 23.2775 21.2761 23.0604C21.8573 22.8363 22.3475 22.5317 22.8377 22.0415C23.3279 21.5513 23.629 21.0576 23.8566 20.4799C24.0737 19.9197 24.2243 19.2789 24.2663 18.337C24.3083 17.3952 24.3188 17.0975 24.3188 14.6991C24.3188 12.3007 24.3083 12.0031 24.2663 11.0612C24.2243 10.1228 24.0737 9.48206 23.8566 8.91834C23.6325 8.33711 23.3279 7.84692 22.8377 7.35673C22.3475 6.86654 21.8538 6.56542 21.2761 6.33783C20.7159 6.12075 20.0751 5.97019 19.1333 5.92817C18.1879 5.88965 17.8868 5.87915 15.4918 5.87915Z" fill="white"/>
<path d="M15.4918 7.46877C17.8483 7.46877 18.1249 7.47928 19.0562 7.52129C19.9176 7.55981 20.3833 7.70337 20.6949 7.82591C21.108 7.98698 21.4022 8.17605 21.7103 8.48417C22.0184 8.79229 22.211 9.08641 22.3685 9.49957C22.4876 9.81119 22.6346 10.2769 22.6732 11.1382C22.7152 12.0696 22.7257 12.3462 22.7257 14.7026C22.7257 17.059 22.7152 17.3356 22.6732 18.267C22.6346 19.1283 22.4911 19.594 22.3685 19.9057C22.2075 20.3188 22.0184 20.6129 21.7103 20.921C21.4022 21.2292 21.108 21.4217 20.6949 21.5793C20.3833 21.6984 19.9176 21.8454 19.0562 21.8839C18.1249 21.9259 17.8483 21.9364 15.4918 21.9364C13.1354 21.9364 12.8588 21.9259 11.9274 21.8839C11.0661 21.8454 10.6004 21.7019 10.2888 21.5793C9.87563 21.4182 9.58152 21.2292 9.2734 20.921C8.96528 20.6129 8.7727 20.3188 8.61514 19.9057C8.49609 19.594 8.34903 19.1283 8.31052 18.267C8.2685 17.3356 8.258 17.059 8.258 14.7026C8.258 12.3462 8.2685 12.0696 8.31052 11.1382C8.34903 10.2769 8.49259 9.81119 8.61514 9.49957C8.7762 9.08641 8.96528 8.79229 9.2734 8.48417C9.58152 8.17605 9.87563 7.98348 10.2888 7.82591C10.6004 7.70687 11.0661 7.55981 11.9274 7.52129C12.8588 7.47578 13.1389 7.46877 15.4918 7.46877Z" fill="white"/>
</g>
<path id="Vector_2" d="M15.4917 10.172C12.9917 10.172 10.9609 12.1993 10.9609 14.7028C10.9609 17.2063 12.9882 19.2335 15.4917 19.2335C17.9952 19.2335 20.0225 17.2063 20.0225 14.7028C20.0225 12.1993 17.9952 10.172 15.4917 10.172ZM15.4917 17.6404C13.8671 17.6404 12.5506 16.3239 12.5506 14.6993C12.5506 13.0746 13.8671 11.7581 15.4917 11.7581C17.1164 11.7581 18.4329 13.0746 18.4329 14.6993C18.4329 16.3239 17.1164 17.6404 15.4917 17.6404Z" fill="#00777B"/>
<path id="Vector_3" d="M20.2 11.0473C20.784 11.0473 21.2574 10.5739 21.2574 9.98991C21.2574 9.40592 20.784 8.9325 20.2 8.9325C19.616 8.9325 19.1426 9.40592 19.1426 9.98991C19.1426 10.5739 19.616 11.0473 20.2 11.0473Z" fill="#00777B"/>
</g>
</svg>
