<svg width="30" height="30" viewBox="0 0 30 30" fill="none" xmlns="http://www.w3.org/2000/svg">
<g id="LinkedIn">
<rect x="0.1875" width="29.396" height="29.396" rx="14.698" fill="#00777B"/>
<path id="Vector" d="M21.7751 6.61414H7.99428C7.67774 6.61414 7.37417 6.73988 7.15035 6.9637C6.92652 7.18753 6.80078 7.4911 6.80078 7.80763V21.5884C6.80078 21.905 6.92652 22.2085 7.15035 22.4324C7.37417 22.6562 7.67774 22.7819 7.99428 22.7819H21.7751C22.0916 22.7819 22.3952 22.6562 22.619 22.4324C22.8428 22.2085 22.9686 21.905 22.9686 21.5884V7.80763C22.9686 7.4911 22.8428 7.18753 22.619 6.9637C22.3952 6.73988 22.0916 6.61414 21.7751 6.61414ZM11.6197 20.3871H9.1889V12.6658H11.6197V20.3871ZM10.4026 11.5958C10.1269 11.5943 9.85778 11.5111 9.62929 11.3567C9.4008 11.2024 9.22315 10.9838 9.11875 10.7286C9.01436 10.4734 8.98791 10.193 9.04274 9.92278C9.09756 9.65255 9.2312 9.40461 9.4268 9.21027C9.6224 9.01592 9.87119 8.88387 10.1418 8.83078C10.4123 8.77769 10.6926 8.80594 10.9471 8.91197C11.2016 9.018 11.4191 9.19705 11.5719 9.42653C11.7248 9.65601 11.8063 9.92563 11.8061 10.2014C11.8087 10.386 11.7741 10.5692 11.7043 10.7402C11.6346 10.9111 11.5312 11.0663 11.4002 11.1964C11.2693 11.3265 11.1134 11.429 10.942 11.4976C10.7706 11.5662 10.5872 11.5996 10.4026 11.5958ZM20.5793 20.3938H18.1497V16.1756C18.1497 14.9316 17.6208 14.5476 16.9382 14.5476C16.2174 14.5476 15.5101 15.091 15.5101 16.207V20.3938H13.0793V12.6714H15.4169V13.7414H15.4483C15.683 13.2665 16.5048 12.4547 17.7589 12.4547C19.1152 12.4547 20.5805 13.2598 20.5805 15.6176L20.5793 20.3938Z" fill="white"/>
</g>
</svg>
