<svg width="30" height="30" viewBox="0 0 18 19" fill="none" xmlns="http://www.w3.org/2000/svg">

<g id="Group">
<path id="Vector" d="M0.15625 18.2473L1.41652 13.6709C0.637367 12.3276 0.22863 10.8063 0.232888 9.2512C0.232888 4.37814 4.21807 0.416138 9.11014 0.416138C11.4859 0.416138 13.7169 1.33566 15.3902 3.00521C17.0677 4.67477 17.9916 6.89518 17.9874 9.25544C17.9874 14.1285 14.0022 18.0905 9.10588 18.0905H9.10162C7.61569 18.0905 6.15531 17.7176 4.85672 17.0142L0.15625 18.2473ZM5.08238 15.4167L5.35061 15.5777C6.48315 16.2472 7.78174 16.5989 9.10588 16.6032H9.11014C13.1762 16.6032 16.4887 13.3107 16.4887 9.25968C16.4887 7.29774 15.7223 5.45445 14.33 4.06457C12.9378 2.67469 11.0814 1.91195 9.11014 1.91195C5.04406 1.90772 1.73159 5.20021 1.73159 9.2512C1.73159 10.6368 2.11904 11.9886 2.85987 13.1581L3.03444 13.4378L2.28934 16.1455L5.08238 15.4167Z" fill="white"/>
<path id="Vector_2" d="M0.466797 17.9379L1.68449 13.5183C0.930883 12.2259 0.53492 10.7555 0.53492 9.25543C0.539177 4.55187 4.38386 0.725464 9.10987 0.725464C11.4048 0.725464 13.5549 1.61533 15.1728 3.22555C16.7907 4.83578 17.6806 6.97993 17.6806 9.25967C17.6806 13.9632 13.8316 17.7896 9.10987 17.7896H9.10561C7.67078 17.7896 6.26149 17.4295 5.00973 16.7515L0.466797 17.9379Z" fill="#00777B"/>
<path id="Vector_3" d="M0.15625 18.2473L1.41652 13.6709C0.637367 12.3276 0.22863 10.8063 0.232888 9.2512C0.232888 4.37814 4.21807 0.416138 9.11014 0.416138C11.4859 0.416138 13.7169 1.33566 15.3902 3.00521C17.0677 4.67477 17.9916 6.89518 17.9874 9.25544C17.9874 14.1285 14.0022 18.0905 9.10588 18.0905H9.10162C7.61569 18.0905 6.15531 17.7176 4.85672 17.0142L0.15625 18.2473ZM5.08238 15.4167L5.35061 15.5777C6.48315 16.2472 7.78174 16.5989 9.10588 16.6032H9.11014C13.1762 16.6032 16.4887 13.3107 16.4887 9.25968C16.4887 7.29774 15.7223 5.45445 14.33 4.06457C12.9378 2.67469 11.0814 1.91195 9.11014 1.91195C5.04406 1.90772 1.73159 5.20021 1.73159 9.2512C1.73159 10.6368 2.11904 11.9886 2.85987 13.1581L3.03444 13.4378L2.28934 16.1455L5.08238 15.4167Z" fill="white"/>
<path id="Vector_4" fill-rule="evenodd" clip-rule="evenodd" d="M6.89219 5.55614C6.72614 5.18748 6.55158 5.17901 6.39404 5.17477C6.26631 5.17053 6.11729 5.17053 5.96828 5.17053C5.81926 5.17053 5.58083 5.22562 5.37646 5.44597C5.17209 5.66631 4.60156 6.20023 4.60156 7.28925C4.60156 8.37404 5.39775 9.42492 5.50845 9.57323C5.61915 9.72154 7.04547 12.0225 9.29778 12.9081C11.1712 13.6454 11.5543 13.4971 11.9588 13.459C12.3633 13.4208 13.2702 12.925 13.4575 12.4081C13.6406 11.8911 13.6406 11.4504 13.5853 11.3572C13.5299 11.264 13.3809 11.2089 13.1595 11.0987C12.9381 10.9885 11.8481 10.4546 11.6438 10.3783C11.4394 10.3063 11.2904 10.2682 11.1456 10.4885C10.9966 10.7089 10.5708 11.2046 10.4431 11.353C10.3154 11.5013 10.1834 11.5182 9.96197 11.408C9.74057 11.2979 9.02528 11.0648 8.17801 10.3105C7.51807 9.72578 7.07101 9.00118 6.94328 8.78083C6.81555 8.56048 6.93051 8.44184 7.04121 8.33166C7.13914 8.2342 7.26261 8.07318 7.37331 7.94606C7.48401 7.81893 7.52233 7.72571 7.59471 7.5774C7.66709 7.42909 7.63303 7.30196 7.57768 7.19179C7.52233 7.08586 7.08804 5.9926 6.89219 5.55614Z" fill="white"/>
</g>
</svg>
